<?xml version="1.0" standalone="no"?>
<!DOCTYPE svg PUBLIC "-//W3C//DTD SVG 20010904//EN"
 "http://www.w3.org/TR/2001/REC-SVG-20010904/DTD/svg10.dtd">
<svg version="1.0" xmlns="http://www.w3.org/2000/svg"
 width="920.000000pt" height="512.000000pt" viewBox="0 0 920.000000 512.000000"
 preserveAspectRatio="xMidYMid meet">

<g transform="translate(0.000000,512.000000) scale(0.100000,-0.100000)"
fill="#000000" stroke="none">
<path d="M2990 5098 c-30 -15 -52 -37 -67 -63 l-23 -40 0 -569 0 -569 -74 -77
c-127 -133 -193 -283 -203 -460 -20 -341 199 -645 532 -742 l80 -23 1475 0
1475 0 35 22 c20 12 46 40 58 61 22 40 22 40 22 609 l0 569 61 59 c176 174
253 423 203 663 -47 228 -189 409 -398 508 -156 74 -17 68 -1656 71 l-1475 3
-45 -22z m3012 -346 c81 -33 160 -108 200 -190 31 -62 33 -74 33 -167 0 -91
-3 -106 -31 -165 -58 -120 -170 -201 -306 -220 -60 -9 -2650 -14 -2659 -6 -2
2 -3 53 -1 113 l3 108 1187 0 1187 0 41 24 c108 61 114 209 11 285 -28 21 -29
21 -1228 24 l-1199 2 0 110 0 110 1353 -2 1352 -3 57 -23z m-40 -1192 l3 -110
-1196 -2 -1195 -3 -41 -27 c-48 -32 -73 -80 -73 -143 0 -57 19 -96 67 -132
l36 -28 1201 -5 1201 -5 0 -108 0 -107 -1330 0 c-1146 0 -1339 2 -1388 15
-232 60 -353 318 -251 535 54 115 168 203 286 220 29 4 643 8 1365 9 l1312 1
3 -110z"/>
<path d="M2305 2276 c-58 -26 -105 -94 -105 -151 0 -14 128 -473 285 -1021
300 -1053 302 -1058 368 -1086 47 -20 3447 -20 3494 0 66 28 68 33 368 1086
157 548 285 1008 285 1022 0 58 -54 131 -113 153 -20 8 -715 11 -2290 11
-1868 -1 -2267 -3 -2292 -14z m4071 -1131 l-230 -805 -1546 0 -1546 0 -230
805 -230 805 2006 0 2006 0 -230 -805z"/>
<path d="M3130 1778 c-54 -27 -90 -84 -90 -143 0 -54 275 -1019 306 -1072 31
-53 74 -77 140 -77 93 0 164 69 164 161 0 51 -284 1050 -308 1083 -23 32 -97
70 -137 70 -17 0 -51 -10 -75 -22z"/>
<path d="M4535 1786 c-42 -18 -93 -79 -100 -118 -3 -18 -5 -267 -3 -554 l3
-521 29 -37 c61 -80 166 -96 238 -36 70 58 68 39 68 619 0 567 1 560 -56 613
-51 48 -118 61 -179 34z"/>
<path d="M5920 1778 c-24 -13 -52 -34 -62 -48 -24 -33 -308 -1031 -308 -1082
0 -93 71 -163 164 -162 67 1 110 24 140 77 31 53 306 1018 306 1072 -1 84 -82
165 -165 165 -17 0 -51 -10 -75 -22z"/>
</g>
</svg>
