<?xml version="1.0" standalone="no"?>
<!DOCTYPE svg PUBLIC "-//W3C//DTD SVG 20010904//EN"
 "http://www.w3.org/TR/2001/REC-SVG-20010904/DTD/svg10.dtd">
<svg version="1.0" xmlns="http://www.w3.org/2000/svg"
 width="236.000000pt" height="122.000000pt" viewBox="0 0 236.000000 122.000000"
 preserveAspectRatio="xMidYMid meet">
<metadata>
Created by potrace 1.16, written by Peter Selinger 2001-2019
</metadata>
<g transform="translate(0.000000,122.000000) scale(0.100000,-0.100000)"
fill="#000000" stroke="none">
<path d="M1377 504 c-9 -9 -9 -346 -1 -368 5 -14 28 -16 155 -16 146 0 149 0
154 23 3 12 4 99 3 192 l-3 170 -151 3 c-82 1 -153 -1 -157 -4z m283 -224 l0
-130 -130 0 -130 0 0 130 0 130 130 0 130 0 0 -130z"/>
<path d="M1472 380 c-71 -44 -77 -144 -11 -191 62 -44 141 -21 175 49 15 32
15 41 3 76 -26 73 -105 105 -167 66z"/>
</g>
</svg>
