<?xml version="1.0" standalone="no"?>
<!DOCTYPE svg PUBLIC "-//W3C//DTD SVG 20010904//EN"
 "http://www.w3.org/TR/2001/REC-SVG-20010904/DTD/svg10.dtd">
<svg version="1.0" xmlns="http://www.w3.org/2000/svg"
 width="236.000000pt" height="122.000000pt" viewBox="0 0 236.000000 122.000000"
 preserveAspectRatio="xMidYMid meet">

<g transform="translate(0.000000,122.000000) scale(0.100000,-0.100000)"
fill="#000000" stroke="none">
<path d="M1385 487 c-3 -7 -4 -89 -3 -182 l3 -170 145 0 145 0 0 180 0 180
-143 3 c-110 2 -144 0 -147 -11z m285 -27 l0 -30 -140 0 -140 0 0 30 0 30 140
0 140 0 0 -30z m0 -180 l0 -140 -140 0 -140 0 0 140 0 140 140 0 140 0 0 -140z"/>
<path d="M1560 460 c0 -5 7 -10 15 -10 8 0 15 5 15 10 0 6 -7 10 -15 10 -8 0
-15 -4 -15 -10z"/>
<path d="M1620 460 c0 -5 7 -10 16 -10 8 0 12 5 9 10 -3 6 -10 10 -16 10 -5 0
-9 -4 -9 -10z"/>
<path d="M1482 375 c-39 -17 -66 -73 -57 -115 7 -34 51 -80 74 -79 12 0 11 2
-4 8 -44 19 -75 81 -55 111 8 13 13 13 37 -3 15 -10 43 -25 60 -34 32 -16 34
-16 58 7 14 13 28 21 31 17 11 -11 -31 -82 -56 -94 -15 -8 -19 -13 -9 -13 17
0 63 46 73 74 10 28 -12 94 -37 111 -35 23 -79 27 -115 10z"/>
</g>
</svg>
